PathFileType	4	(X/Y/Z)	pose_F01_0-89.trc
DataRate	CameraRate	NumFrames	NumMarkers	Units	OrigDataRate	OrigDataStartFrame	OrigNumFrames
30	30	9	21	m	30	77	89
Frame#	Time	CHip			RHip			RKnee			RAnkle			RBigToe			RSmallToe			RHeel			LHip			LKnee			LAnkle			LBigToe			LSmallToe			LHeel			Neck			Nose			RShoulder			RElbow			RWrist			LShoulder			LElbow			LWrist			
		X1	Y1	Z1	X2	Y2	Z2	X3	Y3	Z3	X4	Y4	Z4	X5	Y5	Z5	X6	Y6	Z6	X7	Y7	Z7	X8	Y8	Z8	X9	Y9	Z9	X10	Y10	Z10	X11	Y11	Z11	X12	Y12	Z12	X13	Y13	Z13	X14	Y14	Z14	X15	Y15	Z15	X16	Y16	Z16	X17	Y17	Z17	X18	Y18	Z18	X19	Y19	Z19	X20	Y20	Z20	X21	Y21	Z21	
77	2.566666666666667	-0.22176746694506466	1.83290660077726	-0.5170118178068486	-0.23709631415730373	1.832955875085668	-0.45984384558188274	-0.24651563617424266	1.7155882208798574	-0.450410432951344	-0.23617752880919282	1.6136640673274332	-0.4413703695802904							-0.22638552464021186	1.6123964979942877	-0.4246374230687787	-0.20825848882377168	1.8378767726229162	-0.5751788427708883	-0.21087783997156964	1.7114284461924938	-0.540285262675962	-0.21411380259088816	1.605360266671065	-0.519265212316367	-0.22390396254066963	1.5846797483936998	-0.5425859696113292	-0.21244403077857657	1.5657527655357368	-0.5790165528056092	-0.2176203358991689	1.595362614172211	-0.5014327953312218	-1.6693160588670473	1.890551371969308	1.053843111264874	-0.22275400417527363	2.056820795918561	-0.5761255720454368	-0.24122415585632936	1.9785427211331286	-0.4438698950234955	-0.25134748705929866	1.8969435970086834	-0.41660492775448393	-0.2619752401952795	1.8252473524371127	-0.43579694285206705	-1.477306120521453	1.8907659438196383	0.7503264304349566	-0.17950142371379268	1.9155361933329964	-0.6427291016382	-0.15940575326657852	1.8646689137116914	-0.7185604533311347
78	2.6	-0.22176434760488387	1.8281905133236376	-0.5161601509671999	-0.23397798753516572	1.8271601792152385	-0.4491437651064304	-0.24651563617424266	1.7155882208798574	-0.450410432951344	-0.23617752880919282	1.6136640673274332	-0.4413703695802904							-0.22638552464021186	1.6123964979942877	-0.4246374230687787	-0.20754178571735882	1.8302389944947897	-0.571095811551233	-0.20987504083921554	1.7104476837315463	-0.538862670976443	-0.21411380259088816	1.605360266671065	-0.519265212316367	-0.22390396254066963	1.5846797483936998	-0.5425859696113292	-0.21005203576184653	1.5644702453696355	-0.581086657518483	-0.2176203358991689	1.595362614172211	-0.5014327953312218	-1.6605836486672438	1.890558040831042	1.0381449371672737	-0.220805074773013	2.0566295255345457	-0.5784951136888514	-0.23920484090565225	1.9811252001938189	-0.4466886898098207	-0.24828378393205852	1.8988613625670765	-0.42424236794825665	-0.25963782508557937	1.833264315897311	-0.4707658789087803	-0.19204964549373554	1.9860942211022632	-0.6254042688074237	-0.18030680029231755	1.9118198372615418	-0.6417600429046316	-0.16492903325052055	1.8526138881266094	-0.6945387869082821
79	2.6333333333333333	-0.22086903159463214	1.831739800345125	-0.5135576520235525	-0.23118378785744956	1.8310613569325	-0.4486592665150564	-0.24651563617424266	1.7155882208798574	-0.450410432951344	-0.23617752880919282	1.6136640673274332	-0.4413703695802904							-0.22638552464021186	1.6123964979942877	-0.4246374230687787	-0.20558091392437297	1.833492406994287	-0.5735923058593017	-0.21003794245569551	1.7105606382499	-0.5394561399074154	-0.21411380259088816	1.605360266671065	-0.519265212316367	-0.22390396254066963	1.5846797483936998	-0.5425859696113292	-0.2122637970609274	1.5649614136606873	-0.578930107077538	-0.2176203358991689	1.595362614172211	-0.5014327953312218	-1.6592514990663405	1.8905061081603574	1.0365654327353806	-0.22163603356529565	2.0568262447815027	-0.5815403696114936	-0.2392022025102323	1.9809263887170756	-0.44675967457459514	-0.24826520260890633	1.8973492468354416	-0.4242925032332499	-0.25354503850821547	1.8332320536260855	-0.4866508836445143	-0.19084634563554095	1.9847370432416849	-0.6304414579806388	-0.18111217687084244	1.9081034811900872	-0.6407909841710634	-0.17045231323446255	1.8405588625415272	-0.6705171204854293
80	2.6666666666666665	-0.220830804492263	1.8344721291986144	-0.5138343387513029	-0.2311482518675102	1.8336980300857684	-0.4490014702020731	-0.24651563617424266	1.7155882208798574	-0.450410432951344	-0.23617752880919282	1.6136640673274332	-0.4413703695802904							-0.22638552464021186	1.6123964979942877	-0.4246374230687787	-0.20747904984746127	1.835746157893396	-0.5717331251350837	-0.2102008440721755	1.7106735927682535	-0.5400496088383876	-0.21411380259088816	1.605360266671065	-0.519265212316367	-0.22390396254066963	1.5846797483936998	-0.5425859696113292	-0.21428265885676548	1.564509897261025	-0.5767220990534447	-0.2176203358991689	1.595362614172211	-0.5014327953312218	-1.6587578138579675	1.8906935380848693	1.0357065630624183	-0.2215025307586925	2.054511855168566	-0.580763986854552	-0.23821094226850253	1.979753880581871	-0.4516365998052165	-0.24733340684634822	1.899247418498726	-0.43002712833928347	-0.2541850853544946	1.8354205934314618	-0.4903687935429457	-0.19075111936341083	1.985554175244217	-0.6305122737373653	-0.17786375672331334	1.907628900028267	-0.6485767069847971	-0.16568652947206175	1.8362699965302913	-0.6921403920201158
81	2.7	-0.21884918096563932	1.8343125862452971	-0.5160473074411102	-0.23108836809066322	1.8336696558712207	-0.44906282988945273	-0.24651563617424266	1.7155882208798574	-0.450410432951344	-0.23617752880919282	1.6136640673274332	-0.4413703695802904							-0.22638552464021186	1.6123964979942877	-0.4246374230687787	-0.20551004422149388	1.8359095448836578	-0.5739556370066751	-0.2103637456886555	1.7107865472866073	-0.5406430777693599	-0.21411380259088816	1.605360266671065	-0.519265212316367	-0.22390396254066963	1.5846797483936998	-0.5425859696113292	-0.21184943806719192	1.5656681081113677	-0.579518094239443	-0.2176203358991689	1.595362614172211	-0.5014327953312218	-1.6497053453007056	1.8907165532229506	1.0194562393951585	-0.2204444777119211	2.0538269501360658	-0.5855671992319619	-0.23730936568253141	1.9802575781455811	-0.4570251358299504	-0.24743690833532198	1.9022368642574168	-0.43043435119089674	-0.24810424834038183	1.8398958319830598	-0.4796091098726331	-0.19159825760744567	1.9850843172322457	-0.6336457655073368	-0.18082317658937772	1.908340414477296	-0.6702086641019637	-0.16417442316129688	1.8395551043801515	-0.730575159522602
82	2.7333333333333334	-0.22161929511276215	1.8328993567990435	-0.5168242786203323	-0.23394928060699086	1.8327769679246202	-0.45005615615142364	-0.24651563617424266	1.7155882208798574	-0.450410432951344	-0.23617752880919282	1.6136640673274332	-0.4413703695802904							-0.22638552464021186	1.6123964979942877	-0.4246374230687787	-0.20539400973123553	1.834643660461744	-0.5738253439252808	-0.21052664730513548	1.7108995018049609	-0.5412365467003323	-0.21411380259088816	1.605360266671065	-0.519265212316367	-0.22390396254066963	1.5846797483936998	-0.5425859696113292	-0.2119718043133108	1.5661147853188406	-0.5794280871669426	-0.2176203358991689	1.595362614172211	-0.5014327953312218	-1.649701844855693	1.8907197169823893	1.0194427742058496	-0.22123145830945665	2.052910531875257	-0.5882335365802351	-0.23733083731003396	1.9802388634592396	-0.45708284232718543	-0.24648116173277654	1.9018891359773442	-0.43576150029121774	-0.2392856740368106	1.831551957749511	-0.46699999595925495	-0.1915294730134073	1.985121759138252	-0.6336513812309321	-0.17851406295703762	1.909533275475438	-0.6726364470945202	-0.16721378673114062	1.8476984282463926	-0.7355781112383629
83	2.7666666666666666	-0.21984548784929603	1.8321640367264316	-0.5190694102120993	-0.23520272728825725	1.8313059789398958	-0.46203500420345206	-0.24651563617424266	1.7155882208798574	-0.450410432951344	-0.23617752880919282	1.6136640673274332	-0.4413703695802904							-0.22638552464021186	1.6123964979942877	-0.4246374230687787	-0.20558035990155527	1.8340934309876133	-0.5737956842179981	-0.21068954892161545	1.7110124563233144	-0.5418300156313045	-0.21411380259088816	1.605360266671065	-0.519265212316367	-0.22390396254066963	1.5846797483936998	-0.5425859696113292	-0.21489418213166667	1.5669779562505561	-0.5766661479145422	-0.2176203358991689	1.595362614172211	-0.5014327953312218	-0.21583545433979073	1.9818040256812535	-0.5456062781963105	-0.22315813434398474	2.051869869232368	-0.5945075652491826	-0.23922357277598938	1.97992645644878	-0.45492261709544657	-0.2455894143969105	1.8996709631969555	-0.43243105796579734	-0.2460968646142896	1.8356491321110913	-0.4460047443019839	-0.18968220262226948	1.9837777680513449	-0.6360479661833475	-0.1774984575011084	1.908297252812379	-0.6692720839713349	-0.16332323659311532	1.838833405062673	-0.7189047542958261
84	2.8	-0.21976634082771454	1.8344725550170766	-0.5194516813981587	-0.23531272258158706	1.8322023110662642	-0.46228332020049906	-0.24651563617424266	1.7155882208798574	-0.450410432951344	-0.23617752880919282	1.6136640673274332	-0.4413703695802904							-0.22638552464021186	1.6123964979942877	-0.4246374230687787	-0.20536942615499124	1.8348720470002617	-0.5739847929176844	-0.21085245053809545	1.711125410841668	-0.5424234845622768	-0.21411380259088816	1.605360266671065	-0.519265212316367	-0.22390396254066963	1.5846797483936998	-0.5425859696113292	-0.21196992526228248	1.5637814336278566	-0.5789244382380045	-0.2176203358991689	1.595362614172211	-0.5014327953312218	-1.6480901597700794	1.8907406608550845	1.0174807614116008	-0.22318354331203638	2.051771169326611	-0.594562383916734	-0.2373198321414041	1.9799362073173319	-0.45705540496748176	-0.2457364650823286	1.8991163356189664	-0.43220978427488976	-0.24754145258625376	1.8297344237013096	-0.4394990578418721	-0.19159689695336232	1.9848019121663667	-0.6339168457164807	-0.17433403203587153	1.907873766366811	-0.6563902384334601	-0.16511655398883557	1.837307036458682	-0.6921799303130494
85	2.8333333333333335	-0.2185221944670037	1.8330408499250155	-0.5245217608389834	-0.23606969485503207	1.8300292416157764	-0.4652914599066069	-0.24651563617424266	1.7155882208798574	-0.450410432951344	-0.23617752880919282	1.6136640673274332	-0.4413703695802904							-0.22638552464021186	1.6123964979942877	-0.4246374230687787	-0.20606793999237288	1.8345459943867397	-0.5769337115654146	-0.21101535215457545	1.7112383653600216	-0.5430169534932492	-0.21411380259088816	1.605360266671065	-0.519265212316367	-0.22390396254066963	1.5846797483936998	-0.5425859696113292	-0.21238602336273352	1.5654432514214158	-0.5789161413041735	-0.2176203358991689	1.595362614172211	-0.5014327953312218	-0.21580826714872164	1.981990324843305	-0.5456688733793567	-0.22314456516821699	2.0518733499696693	-0.5945880989720114	-0.2372883540036918	1.9800536465985712	-0.4570172804844336	-0.2446876976073568	1.8970862066644851	-0.4286512959902992	-0.25057236451914855	1.8259789329491505	-0.4399911107006346	-0.19048713790031996	1.9839061264375875	-0.6390953320306962	-0.17947238545682945	1.908195878020077	-0.6545549781603452	-0.17163775192137923	1.8340684155363436	-0.6641638268027699
